<svg xmlns="http://www.w3.org/2000/svg" viewBox="0 0 96 96" role="img" aria-labelledby="title desc">
  <title id="title">Lineup DNA</title>
  <desc id="desc">A basketball court mark with a double helix.</desc>
  <defs>
    <linearGradient id="dnaBg" x1="0" y1="0" x2="1" y2="1">
      <stop offset="0" stop-color="#213b8e"/>
      <stop offset="1" stop-color="#10213f"/>
    </linearGradient>
  </defs>
  <rect x="3" y="3" width="90" height="90" rx="22" fill="url(#dnaBg)" stroke="#e8b84c" stroke-width="3"/>
  <path d="M20 70h56M48 17v62M20 29h56M20 48h56" fill="none" stroke="#8fa9e9" stroke-opacity=".35" stroke-width="2"/>
  <path d="M37 20c20 8 20 18 0 28s-20 20 0 28M59 20c-20 8-20 18 0 28s20 20 0 28M39 27h18M35 39h26M35 51h26M39 63h18" fill="none" stroke="#7de0bd" stroke-linecap="round" stroke-width="3"/>
  <circle cx="37" cy="20" r="3.5" fill="#fff"/><circle cx="59" cy="20" r="3.5" fill="#fff"/>
  <text x="48" y="86" fill="#fff" font-family="Arial,sans-serif" font-size="9" font-weight="800" letter-spacing="1.4" text-anchor="middle">DNA</text>
</svg>
